<svg width="85" height="85" viewBox="0 0 85 85" fill="none" xmlns="http://www.w3.org/2000/svg">
<path d="M76.4045 42.5C76.4045 54.6797 71.4951 63.9928 62.029 70.0827C56.7806 73.4705 49.186 76.7898 42.5 76.7898C30.7962 76.7898 23.188 74.9107 17.0988 65.817C13.4371 60.3307 8.5955 49.6323 8.5955 42.5C8.5955 33.1046 10.9824 23.2154 17.0309 17.0158C23.0795 10.8163 33.061 8.21023 42.5 8.21023C55.3837 8.21023 65.2431 15.4797 70.9798 26.1918C73.5294 31.0335 76.4045 36.5884 76.4045 42.5Z" fill="white"/>
<path d="M59.4307 36.3291C58.5289 34.4279 56.5972 33.1988 54.5103 33.1988C54.3138 33.1988 54.1188 33.2094 53.9253 33.2305C53.6657 30.9724 52.0273 29.0035 49.7342 28.4698C49.3311 28.3759 48.9186 28.3285 48.5081 28.3285C47.9975 28.3285 47.4895 28.4017 46.9985 28.5457C44.7921 29.1929 43.2511 31.3191 43.2511 33.7165V34.0965V38.2554V46.9384V50.0561V51.4526C43.2511 54.2839 45.3748 56.6539 48.0861 56.8484C48.213 56.8574 48.3418 56.8621 48.4687 56.8621C48.8753 56.8621 49.2827 56.8151 49.6796 56.7228C51.9716 56.1997 53.6182 54.2389 53.8874 51.9836C54.0878 52.0063 54.2902 52.0176 54.4941 52.0176C56.5724 52.0176 58.5007 50.796 59.4071 48.9057C60.4347 46.7623 59.9449 44.2358 58.3664 42.6166C59.9515 41.0034 60.4514 38.4777 59.4307 36.3291ZM58.3827 48.4037C57.6364 49.9599 56.0962 50.8669 54.4937 50.8669C53.8921 50.8669 53.2819 50.7389 52.7012 50.4697C53.1713 52.7916 51.7197 55.0775 49.4239 55.6014C49.1043 55.6757 48.7813 55.7113 48.4679 55.7113C48.3665 55.7113 48.266 55.7078 48.1658 55.7004C46.0112 55.5458 44.3882 53.6371 44.3882 51.4526V50.0561V46.9384V38.255V34.0961V33.7161C44.3882 31.8622 45.5543 30.1668 47.3146 29.6507C47.6972 29.5384 48.098 29.4793 48.5074 29.4793C48.8277 29.4793 49.1527 29.5157 49.4785 29.5912C51.7708 30.1245 53.2127 32.4175 52.733 34.7389C53.309 34.4752 53.9141 34.3496 54.5099 34.3496C56.119 34.3496 57.6631 35.2633 58.4051 36.8276C59.4249 38.9746 58.5521 41.5453 56.4579 42.6123C58.549 43.6892 59.4091 46.263 58.3827 48.4037Z" fill="#F24510"/>
<path d="M30.0351 41.9863H33.3666V45.5755H37.2223V44.8082H36.8876H34.1252V41.6443V41.2194H33.7542H30.7938V39.0528H31.5869V38.7367V36.6046H29.1661V39.0528H30.0351V41.9863V41.9863ZM29.9244 38.2855V37.3719H30.8278V38.2855H29.9244Z" fill="#F24510"/>
<path d="M30.7934 49.0564V46.3773H31.5865V46.0783V43.929H29.1657V46.3773H30.0347V49.8233H33.8177V49.4398V49.0564H33.5631H30.7934V49.0564ZM29.9244 45.61V44.6963H30.8278V45.61H29.9244Z" fill="#F24510"/>
<path d="M38.653 43.4336H38.2738V44.4138V52.1248H37.182V51.2844H35.6144H34.7613V53.7326H37.182V52.8921H39.0325V43.4336H38.653ZM36.4234 52.9653H35.52V52.0517H36.4234V52.9653Z" fill="#F24510"/>
<path d="M36.6385 34.7816V33.9411H37.9802V37.512V38.0077H38.7389V33.1742H36.6385V32.3337H34.2181V34.7816H35.8918H36.6385ZM35.8802 34.0147H34.9768V33.101H35.8802V34.0147Z" fill="#F24510"/>
<path d="M49.6893 46.4481H49.3102V47.0965V52.0704H47.8659V51.23H46.8925H45.4452V53.6782H47.8659V52.8378H50.0685V46.4481H49.6893V46.4481ZM47.1076 52.9109H46.2042V51.9973H47.1076V52.9109Z" fill="#F24510"/>
<path d="M55.1707 40.0123V36.9556L48.7558 36.9912H46.7536V33.5033H48.2992V34.3437H49.4549H50.7196V31.8955H48.2988V32.736H45.9945V44.7844H45.4452V47.2326H47.8659V44.7844H46.7532V44.5723V37.7581H51.1208V41.899H50.4325V42.025V44.0581H52.5674V41.899H51.8795V37.7229H52.3813H54.4124V39.5627V40.0123H53.7245V42.171H55.8594V40.0123H55.1707ZM49.0575 32.6628H49.9609V33.5764H49.0575V32.6628ZM47.1076 45.5517V46.4653H46.2042V45.5517H47.1076ZM51.8087 43.2912H51.1912V42.6667H51.8087V43.2912ZM55.0999 41.4037H54.4825V40.7792H55.0999V41.4037Z" fill="#F24510"/>
<path d="M53.7242 46.1312V46.452H54.412V48.6185H51.7971H51.4999V49.002V49.3855H55.1703V46.452H55.8582V44.2933H53.7238V46.1312H53.7242ZM54.4825 45.0602H55.0999V45.6847H54.4825V45.0602Z" fill="#F24510"/>
<path d="M38.1071 28.5441C37.6157 28.3994 37.1089 28.3289 36.5982 28.3289C36.1881 28.3289 35.7742 28.3759 35.3718 28.4698C33.0776 29.0019 31.441 30.974 31.1779 33.2317C30.9884 33.2082 30.7911 33.2004 30.5937 33.2004C28.5084 33.2004 26.5779 34.429 25.6725 36.3307C24.655 38.4788 25.1541 41.0026 26.7403 42.6147C25.1618 44.2346 24.6705 46.7623 25.6996 48.9065C26.6049 50.7964 28.5316 52.0172 30.6131 52.0172C30.8143 52.0172 31.0193 52.0055 31.2166 51.982C31.4875 54.2397 33.1356 56.2001 35.4298 56.7244C35.8245 56.8144 36.2307 56.8613 36.6369 56.8613C36.7646 56.8613 36.8923 56.8574 37.0199 56.8496C39.732 56.6539 41.856 54.2828 41.856 51.4538V33.7169C41.856 31.3183 40.3123 29.1937 38.1071 28.5441ZM40.7147 51.4538C40.7147 53.6371 39.0937 55.5466 36.9387 55.6992C36.8381 55.707 36.7375 55.7109 36.6369 55.7109C36.3235 55.7109 36.0024 55.6757 35.6813 55.6014C33.3871 55.0771 31.9324 52.792 32.4044 50.4717C31.824 50.7377 31.2128 50.8669 30.6131 50.8669C29.0075 50.8669 27.4677 49.9591 26.721 48.4018C25.6958 46.2615 26.5546 43.6907 28.6477 42.6108C26.5508 41.5465 25.6803 38.9758 26.7017 36.8276C27.4406 35.2625 28.9843 34.3508 30.5937 34.3508C31.1895 34.3508 31.797 34.476 32.3734 34.7382C31.8937 32.4178 33.3329 30.1249 35.6271 29.5928C35.9521 29.5145 36.2771 29.4793 36.5982 29.4793C37.0083 29.4793 37.4068 29.538 37.7898 29.6515C39.5502 30.168 40.7147 31.8622 40.7147 33.7169V40.4978H37.8131V39.6566H35.3911V42.106H37.8131V41.2648H40.7147V51.4538V51.4538ZM37.0548 40.4235V41.3391H36.1533V40.4235H37.0548Z" fill="#F24510"/>
</svg>
